<svg width="276" height="305" viewBox="0 0 276 305" fill="none" xmlns="http://www.w3.org/2000/svg">
<g clip-path="url(#clip0_2060_1083)">
<path d="M157.182 242.871H119.756V299.421H157.182V242.871Z" fill="white"/>
<path d="M259.506 46.8036H16.9351C14.8261 46.7682 12.7318 47.1819 10.7767 48.0201C8.82161 48.8583 7.04585 50.1039 5.55434 51.683C4.06283 53.2621 2.88645 55.1423 2.09471 57.2122C1.30298 59.282 0.911905 61.4993 0.945335 63.7321V241.298C0.918593 243.527 1.3145 245.738 2.10922 247.802C2.90394 249.866 4.08164 251.74 5.57246 253.313C7.06329 254.887 8.83702 256.127 10.7888 256.962C12.7406 257.797 14.8303 258.209 16.9351 258.174H259.506C261.609 258.202 263.697 257.785 265.645 256.948C267.594 256.11 269.365 254.869 270.854 253.297C272.344 251.725 273.522 249.854 274.319 247.793C275.116 245.733 275.516 243.525 275.496 241.298V63.7321C275.523 61.5012 275.128 59.2872 274.333 57.2206C273.539 55.1541 272.362 53.2767 270.872 51.6991C269.382 50.1215 267.609 48.8756 265.657 48.0349C263.705 47.1941 261.613 46.7755 259.506 46.8036Z" fill="#9200D7"/>
<path d="M256.982 66.8762H19.9062V219.076H256.982V66.8762Z" fill="#F4F3F4"/>
<path d="M150.696 105.555V181.235C150.696 192.137 146.191 200.365 140.201 200.365H48.866C42.876 200.365 38.3711 192.137 38.3711 181.235V105.555C38.3711 94.6534 42.876 86.425 48.866 86.425H140.251C146.191 86.425 150.696 94.6534 150.696 105.555Z" fill="#9200D7"/>
<path d="M188.617 172.588H169.657V199.003H188.617V172.588Z" fill="#006BE0"/>
<path d="M238.022 172.588H188.122V199.003H238.022V172.588Z" fill="#43A3F9"/>
<path d="M188.617 129.245H169.657V155.659H188.617V129.245Z" fill="white"/>
<path d="M238.022 129.245H188.122V155.659H238.022V129.245Z" fill="#C4C2BB"/>
<path d="M188.617 86.425H169.657V112.84H188.617V86.425Z" fill="#FDB659"/>
<path d="M238.022 86.425H188.122V112.84H238.022V86.425Z" fill="#FFDD88"/>
<path d="M255.002 0.8396C258.567 1.06427 261.916 2.72199 264.365 5.47396C266.815 8.22593 268.178 11.8643 268.178 15.6455C268.178 19.4267 266.815 23.0651 264.365 25.817C261.916 28.569 258.567 30.2267 255.002 30.4514C251.323 30.3711 247.816 28.7882 245.214 26.0337C242.612 23.2792 241.117 19.5664 241.041 15.6717C241.035 13.7264 241.391 11.7989 242.09 9.99965C242.788 8.20044 243.815 6.56492 245.112 5.18694C246.409 3.80897 247.951 2.71563 249.648 1.9696C251.345 1.22358 253.164 0.839587 255.002 0.8396Z" fill="#9200D7"/>
<path d="M28.9155 271.381C31.3829 271.381 33.7947 272.156 35.8462 273.607C37.8978 275.058 39.4965 277.121 40.4407 279.534C41.3849 281.948 41.6321 284.603 41.1508 287.165C40.6694 289.727 39.4812 292.081 37.7365 293.928C35.9918 295.775 33.769 297.033 31.349 297.542C28.9291 298.052 26.4211 297.79 24.1415 296.791C21.862 295.791 19.9135 294.098 18.5427 291.926C17.1719 289.754 16.4403 287.201 16.4403 284.589C16.4272 282.85 16.7408 281.127 17.3631 279.518C17.9854 277.909 18.9039 276.448 20.0649 275.219C21.226 273.989 22.6063 273.017 24.1258 272.358C25.6453 271.699 27.2736 271.367 28.9155 271.381Z" fill="#9200D7"/>
<path d="M191.142 284.589C193.538 284.772 195.779 285.909 197.415 287.771C199.051 289.633 199.961 292.082 199.961 294.625C199.961 297.169 199.051 299.617 197.415 301.479C195.779 303.341 193.538 304.479 191.142 304.662H85.3016C82.9057 304.479 80.6639 303.341 79.0277 301.479C77.3915 299.617 76.4824 297.169 76.4824 294.625C76.4824 292.082 77.3915 289.633 79.0277 287.771C80.6639 285.909 82.9057 284.772 85.3016 284.589H191.142Z" fill="#9200D7"/>
<path d="M267.476 287.786C268.104 287.716 268.739 287.786 269.339 287.993C269.94 288.199 270.493 288.537 270.962 288.984C271.431 289.431 271.806 289.978 272.063 290.589C272.32 291.199 272.453 291.86 272.453 292.529C272.453 293.197 272.32 293.858 272.063 294.469C271.806 295.08 271.431 295.626 270.962 296.073C270.493 296.521 269.94 296.858 269.339 297.065C268.739 297.271 268.104 297.342 267.476 297.272C266.916 297.33 266.351 297.265 265.816 297.082C265.281 296.9 264.787 296.603 264.365 296.209C263.942 295.816 263.601 295.336 263.362 294.797C263.122 294.259 262.989 293.674 262.971 293.079C262.917 292.413 262.992 291.743 263.193 291.11C263.394 290.476 263.715 289.893 264.138 289.397C264.56 288.9 265.074 288.501 265.648 288.224C266.223 287.947 266.845 287.798 267.476 287.786Z" fill="#F4F3F4"/>
<path d="M217.576 268.237C218.469 268.237 219.342 268.518 220.084 269.044C220.826 269.571 221.403 270.319 221.743 271.193C222.082 272.068 222.168 273.029 221.991 273.956C221.813 274.882 221.379 275.732 220.744 276.397C220.109 277.062 219.302 277.512 218.425 277.69C217.547 277.868 216.64 277.766 215.818 277.397C214.995 277.028 214.296 276.409 213.807 275.617C213.318 274.826 213.061 273.899 213.071 272.954C213.071 272.33 213.188 271.712 213.415 271.136C213.642 270.561 213.975 270.038 214.394 269.599C214.813 269.161 215.309 268.814 215.856 268.58C216.402 268.347 216.987 268.23 217.576 268.237Z" fill="#F4F3F4"/>
<path d="M211.586 4.03667C212.479 4.03673 213.352 4.31781 214.094 4.84422C214.836 5.37064 215.412 6.1186 215.752 6.99314C216.091 7.86768 216.178 8.82929 216 9.75585C215.822 10.6824 215.388 11.5321 214.753 12.197C214.118 12.8619 213.311 13.3119 212.434 13.49C211.557 13.668 210.65 13.5661 209.827 13.197C209.005 12.828 208.305 12.2086 207.816 11.4174C207.327 10.6262 207.071 9.69901 207.081 8.75356C207.081 8.12969 207.198 7.51201 207.425 6.93628C207.652 6.36056 207.984 5.83825 208.403 5.39955C208.822 4.96085 209.319 4.61449 209.865 4.38055C210.412 4.1466 210.997 4.02974 211.586 4.03667Z" fill="#F4F3F4"/>
<path d="M142.725 233.646C143.951 234.899 144.663 236.612 144.705 238.415C144.752 239.319 144.597 240.222 144.253 241.05C143.909 241.879 143.386 242.61 142.725 243.185C141.542 244.483 139.923 245.236 138.22 245.281C136.508 245.254 134.874 244.522 133.663 243.24C132.452 241.959 131.761 240.228 131.735 238.415C131.696 237.513 131.855 236.613 132.198 235.785C132.542 234.958 133.061 234.226 133.716 233.646C134.298 232.999 134.996 232.48 135.77 232.12C136.543 231.76 137.375 231.566 138.22 231.55C139.078 231.453 139.946 231.596 140.736 231.963C141.527 232.331 142.212 232.911 142.725 233.646Z" fill="#F4F3F4"/>
<path d="M89.8066 4.03667C90.6997 4.03673 91.5726 4.31781 92.3144 4.84422C93.0563 5.37064 93.6332 6.1186 93.9727 6.99314C94.3121 7.86768 94.3983 8.82929 94.2204 9.75585C94.0425 10.6824 93.6087 11.5321 92.9737 12.197C92.3388 12.8619 91.5315 13.3119 90.6544 13.49C89.7773 13.668 88.8703 13.5661 88.0481 13.197C87.2258 12.828 86.5254 12.2086 86.0364 11.4174C85.5474 10.6262 85.2917 9.69901 85.3015 8.75356C85.3015 8.12969 85.4184 7.51201 85.6454 6.93628C85.8724 6.36056 86.2048 5.83825 86.6238 5.39955C87.0427 4.96085 87.5399 4.61449 88.0862 4.38055C88.6324 4.1466 89.2174 4.02974 89.8066 4.03667Z" fill="#F4F3F4"/>
<path d="M64.8554 268.237C65.7485 268.237 66.6214 268.518 67.3633 269.044C68.1051 269.571 68.6826 270.319 69.0221 271.193C69.3615 272.068 69.4477 273.029 69.2698 273.956C69.092 274.882 68.6576 275.732 68.0226 276.397C67.3876 277.062 66.5804 277.512 65.7033 277.69C64.8262 277.868 63.9192 277.766 63.0969 277.397C62.2747 277.028 61.5742 276.409 61.0852 275.617C60.5962 274.826 60.3406 273.899 60.3504 272.954C60.3503 272.33 60.4672 271.712 60.6942 271.136C60.9212 270.561 61.2536 270.038 61.6726 269.599C62.0916 269.161 62.5887 268.814 63.135 268.58C63.6813 268.347 64.2662 268.23 64.8554 268.237Z" fill="#F4F3F4"/>
<path d="M52.3805 27.2546C53.2715 27.2546 54.1427 27.5344 54.8836 28.0584C55.6244 28.5825 56.2014 29.3274 56.5424 30.1989C56.8833 31.0704 56.9724 32.0293 56.7986 32.9545C56.6248 33.8796 56.1958 34.7294 55.5658 35.3964C54.9358 36.0634 54.1331 36.5177 53.2592 36.7017C52.3853 36.8857 51.4796 36.7913 50.6565 36.4303C49.8333 36.0693 49.1301 35.458 48.6351 34.6737C48.1401 33.8894 47.8755 32.9673 47.8755 32.024C47.8755 30.7591 48.3504 29.546 49.1953 28.6516C50.0401 27.7572 51.1858 27.2546 52.3805 27.2546Z" fill="#F4F3F4"/>
</g>
<defs>
<clipPath id="clip0_2060_1083">
<rect width="274.501" height="303.822" fill="white" transform="translate(0.945312 0.8396)"/>
</clipPath>
</defs>
</svg>
