<svg width="238" height="278" viewBox="0 0 238 278" fill="none" xmlns="http://www.w3.org/2000/svg">
<g clip-path="url(#clip0_2060_1133)">
<path d="M165.844 0.583274H67.8313C62.0927 0.64559 56.6052 3.18568 52.5473 7.65814C48.4893 12.1306 46.1845 18.1787 46.1279 24.5034V253.132C46.1845 259.457 48.4893 265.505 52.5473 269.977C56.6052 274.45 62.0927 276.99 67.8313 277.052H165.844C171.579 276.978 177.06 274.433 181.116 269.964C185.171 265.494 187.48 259.453 187.547 253.132V24.6947C187.612 21.525 187.096 18.3737 186.03 15.4288C184.965 12.484 183.371 9.80611 181.345 7.55535C179.319 5.3046 176.902 3.52703 174.239 2.3291C171.575 1.13117 168.72 0.53746 165.844 0.583274Z" fill="#9200D7"/>
<path d="M171.53 31.631V246.912C171.536 248.623 171.234 250.318 170.643 251.899C170.052 253.481 169.182 254.918 168.085 256.127C166.987 257.337 165.684 258.295 164.249 258.947C162.814 259.599 161.276 259.931 159.724 259.925H73.9519C72.3998 259.931 70.8619 259.599 69.4268 258.947C67.9918 258.295 66.6881 257.337 65.5906 256.127C64.4931 254.918 63.6237 253.481 63.0324 251.899C62.4411 250.318 62.1397 248.623 62.1454 246.912V31.631C62.0385 29.9723 62.2415 28.3071 62.742 26.7385C63.2426 25.1698 64.0301 23.7311 65.0554 22.5113C66.0808 21.2915 67.3221 20.3166 68.703 19.647C70.084 18.9774 71.5753 18.6273 73.084 18.6184H94.7873V19.5753C94.7698 20.5943 94.9383 21.6067 95.2828 22.5526C95.6272 23.4985 96.1405 24.3585 96.7924 25.0814C97.4442 25.8043 98.2211 26.3755 99.0771 26.761C99.9332 27.1464 100.851 27.3384 101.776 27.3254H131.119C132.042 27.3318 132.957 27.1353 133.81 26.7475C134.663 26.3597 135.438 25.7884 136.089 25.0668C136.74 24.3452 137.253 23.4879 137.6 22.545C137.946 21.6021 138.119 20.5925 138.107 19.5753V18.6184H159.55C161.116 18.5865 162.673 18.9 164.128 19.5402C165.584 20.1805 166.908 21.1347 168.024 22.3469C169.14 23.559 170.025 25.0046 170.627 26.5989C171.229 28.1932 171.536 29.9041 171.53 31.631Z" fill="#F4F3F4"/>
<path d="M157.987 148.17V211.845C158.004 214.577 157.529 217.286 156.588 219.813C155.648 222.341 154.261 224.638 152.508 226.569C150.755 228.501 148.671 230.03 146.378 231.067C144.084 232.103 141.627 232.627 139.148 232.608H94.5261C92.0473 232.627 89.59 232.103 87.2966 231.067C85.0032 230.03 82.9193 228.501 81.1665 226.569C79.4138 224.638 78.0272 222.341 77.0866 219.813C76.146 217.286 75.6704 214.577 75.6877 211.845V148.17H157.987Z" fill="#9200D7"/>
<path d="M221.1 15.0784C224.389 15.0784 227.603 16.1531 230.337 18.1664C233.071 20.1797 235.201 23.0413 236.46 26.3894C237.718 29.7375 238.047 33.4215 237.406 36.9758C236.764 40.5301 235.181 43.7949 232.856 46.3574C230.531 48.9199 227.569 50.665 224.344 51.3719C221.119 52.0789 217.776 51.716 214.738 50.3292C211.701 48.9424 209.104 46.594 207.277 43.5808C205.451 40.5676 204.476 37.0251 204.476 33.4012C204.47 30.9932 204.896 28.6078 205.73 26.3819C206.563 24.1561 207.787 22.1337 209.332 20.431C210.877 18.7283 212.712 17.3789 214.731 16.4603C216.751 15.5417 218.916 15.0721 221.1 15.0784Z" fill="#9200D7"/>
<path d="M11.7937 175.152C13.9571 175.152 16.0719 175.858 17.8707 177.183C19.6695 178.508 21.0714 180.391 21.8993 182.594C22.7272 184.797 22.9439 187.221 22.5219 189.559C22.0998 191.898 21.0579 194.046 19.5281 195.732C17.9984 197.418 16.0493 198.566 13.9274 199.031C11.8056 199.497 9.60646 199.258 7.60771 198.345C5.60896 197.433 3.90043 195.888 2.69849 193.905C1.49656 191.923 0.855086 189.592 0.855086 187.207C0.843522 185.62 1.11858 184.047 1.66419 182.579C2.20981 181.11 3.01518 179.776 4.03323 178.654C5.05127 177.532 6.2616 176.645 7.59394 176.043C8.92628 175.442 10.354 175.139 11.7937 175.152Z" fill="#9200D7"/>
<path d="M110.24 114.873H98.8674V148.17H110.24V114.873Z" fill="#9200D7"/>
<path d="M98.8665 114.873H87.4939V148.17H98.8665V114.873Z" fill="#9200D7"/>
<path d="M98.8665 84.9731L110.239 114.873H98.8665H87.4939L98.8665 84.9731Z" fill="#A5ABAF"/>
<path d="M128.21 163.144H76.1218V208.497H128.21V163.144Z" fill="#43A3F9"/>
<path d="M222.316 175.152C223.097 175.152 223.86 175.407 224.51 175.886C225.16 176.364 225.666 177.044 225.965 177.84C226.264 178.635 226.342 179.51 226.19 180.355C226.037 181.199 225.661 181.975 225.109 182.584C224.556 183.193 223.853 183.607 223.086 183.775C222.32 183.943 221.526 183.857 220.804 183.528C220.082 183.198 219.465 182.64 219.031 181.924C218.597 181.208 218.366 180.367 218.366 179.506C218.36 178.932 218.458 178.363 218.655 177.832C218.851 177.301 219.142 176.818 219.51 176.413C219.878 176.007 220.315 175.687 220.797 175.47C221.279 175.254 221.796 175.146 222.316 175.152Z" fill="#F4F3F4"/>
<path d="M211.378 94.1582C212.159 94.1582 212.923 94.4135 213.573 94.8919C214.222 95.3702 214.728 96.0501 215.027 96.8456C215.326 97.6411 215.404 98.5165 215.252 99.361C215.1 100.205 214.723 100.981 214.171 101.59C213.619 102.199 212.915 102.614 212.149 102.782C211.382 102.95 210.588 102.863 209.866 102.534C209.145 102.204 208.528 101.646 208.094 100.93C207.66 100.214 207.428 99.3727 207.428 98.5117C207.422 97.9382 207.52 97.3692 207.717 96.8381C207.913 96.3071 208.204 95.8246 208.572 95.4191C208.94 95.0135 209.378 94.693 209.86 94.4765C210.341 94.26 210.858 94.1518 211.378 94.1582Z" fill="#F4F3F4"/>
<path d="M211.378 244.664C212.161 244.664 212.927 244.92 213.577 245.401C214.228 245.881 214.734 246.564 215.032 247.362C215.329 248.161 215.405 249.038 215.249 249.884C215.093 250.73 214.712 251.505 214.156 252.112C213.599 252.719 212.891 253.13 212.122 253.293C211.352 253.455 210.557 253.362 209.836 253.025C209.115 252.688 208.502 252.123 208.073 251.401C207.644 250.679 207.419 249.832 207.428 248.969C207.428 248.4 207.53 247.836 207.729 247.31C207.929 246.785 208.22 246.308 208.588 245.908C208.955 245.507 209.391 245.191 209.87 244.977C210.349 244.764 210.861 244.657 211.378 244.664Z" fill="#F4F3F4"/>
<path d="M29.2876 133.244C30.0724 133.234 30.842 133.483 31.4982 133.958C32.1544 134.432 32.6674 135.112 32.9717 135.909C33.2761 136.707 33.3575 137.586 33.2065 138.435C33.0554 139.284 32.6784 140.064 32.1234 140.676C31.5684 141.287 30.8606 141.703 30.0903 141.869C29.3201 142.036 28.5227 141.946 27.7992 141.61C27.0756 141.275 26.4591 140.709 26.0283 139.986C25.5976 139.263 25.3723 138.415 25.3809 137.55C25.3809 136.408 25.7922 135.312 26.5248 134.505C27.2575 133.698 28.2515 133.244 29.2876 133.244Z" fill="#F4F3F4"/>
<path d="M21.4294 244.664C22.2125 244.664 22.9779 244.921 23.6283 245.401C24.2788 245.882 24.7852 246.565 25.0828 247.363C25.3805 248.161 25.456 249.039 25.3001 249.885C25.1441 250.73 24.7637 251.506 24.207 252.113C23.6502 252.72 22.9419 253.131 22.1728 253.293C21.4037 253.456 20.6085 253.363 19.8875 253.026C19.1665 252.689 18.5529 252.123 18.1241 251.401C17.6953 250.679 17.4706 249.833 17.4792 248.97C17.0886 246.578 18.7816 244.664 21.4294 244.664Z" fill="#F4F3F4"/>
<path d="M10.4914 27.6123C11.2745 27.6124 12.0399 27.869 12.6904 28.3495C13.3408 28.83 13.8472 29.5128 14.1448 30.3111C14.4425 31.1094 14.5181 31.9871 14.3621 32.8329C14.2061 33.6787 13.8257 34.4542 13.269 35.0611C12.7122 35.668 12.0044 36.0788 11.2353 36.2413C10.4663 36.4039 9.67047 36.3109 8.9495 35.974C8.22853 35.6372 7.61487 35.0717 7.1861 34.3495C6.75733 33.6273 6.53265 32.7809 6.54125 31.9179C6.54122 31.3484 6.64371 30.7846 6.84275 30.2591C7.04178 29.7336 7.33376 29.2568 7.70113 28.8564C8.0685 28.4559 8.50442 28.1398 8.98341 27.9262C9.4624 27.7127 9.97475 27.606 10.4914 27.6123Z" fill="#F4F3F4"/>
<path d="M144.4 136.114V148.17H122.523V84.9731H144.4V99.9472V117.792V136.114Z" fill="#9200D7"/>
<path d="M133.463 136.114C133.503 136.866 133.789 137.576 134.268 138.112C134.747 138.649 135.386 138.976 136.067 139.032H144.401V133.244H136.067C135.722 133.23 135.378 133.295 135.056 133.435C134.735 133.574 134.443 133.785 134.198 134.055C133.954 134.324 133.763 134.646 133.636 135C133.51 135.354 133.451 135.734 133.463 136.114Z" fill="#F9E4AA"/>
<path d="M133.462 117.743C133.502 118.495 133.788 119.205 134.267 119.741C134.746 120.278 135.386 120.605 136.067 120.662H144.4V114.873H136.067C135.393 114.928 134.758 115.249 134.281 115.775C133.803 116.302 133.513 117.001 133.462 117.743Z" fill="#F9E4AA"/>
<path d="M133.463 99.9471C133.503 100.699 133.789 101.408 134.268 101.945C134.747 102.482 135.386 102.809 136.067 102.865H144.401V97.0767H136.067C135.722 97.0633 135.378 97.1284 135.056 97.2679C134.735 97.4074 134.443 97.6184 134.198 97.8877C133.954 98.1569 133.763 98.4787 133.636 98.833C133.51 99.1873 133.451 99.5666 133.463 99.9471Z" fill="#F9E4AA"/>
</g>
<defs>
<clipPath id="clip0_2060_1133">
<rect width="236.74" height="276.852" fill="white" transform="translate(0.854492 0.582764)"/>
</clipPath>
</defs>
</svg>
