<svg width="4296" height="8066" viewBox="0 0 4296 8066" fill="none" xmlns="http://www.w3.org/2000/svg">
<path d="M480.986 0C480.986 2594.78 1769.47 3692.04 3127.03 3347.7C3818.98 3172.19 4011.91 2632.71 4056.28 2462.36C4065.28 2427.81 4068.82 2392.18 4065.2 2356.65C4008.91 1804.76 3085.14 1670.5 2703.6 2808.6L2468.8 3484.16L2234 4159.71M2234 4159.71C2516.4 4328.85 2966.49 4690.72 2922.92 5080.12C2901.99 5267.19 2448.63 6649.53 2127.49 7428.34C1706.29 8213.78 -27.036 7842.45 261.139 6544.68L724.965 5009.32L921.999 4531.42L1105.5 4231.66C1134.64 4184.05 1171.8 4141.85 1215.33 4106.91V4106.91C1301.22 4037.98 1408.06 4000.41 1518.19 4000.41H1627.08C1679.76 4000.41 1732.3 4005.66 1783.94 4016.07L1911.09 4041.71L2088.76 4112.51L2234 4159.71Z" stroke="#9200D7" stroke-opacity="0.03" stroke-width="457.903"/>
</svg>
