<svg width="287" height="331" viewBox="0 0 287 331" fill="none" xmlns="http://www.w3.org/2000/svg">
<g clip-path="url(#clip0_2060_1177)">
<path d="M162.987 272.042H123.95V316.773H162.987V272.042Z" fill="white"/>
<path d="M286.347 261.685C286.382 264.11 285.974 266.517 285.148 268.765C284.322 271.012 283.095 273.054 281.539 274.769C279.984 276.483 278.131 277.836 276.092 278.746C274.053 279.656 271.868 280.105 269.668 280.067H16.65C14.4544 280.098 12.2753 279.643 10.2421 278.729C8.20879 277.816 6.36264 276.462 4.81242 274.748C3.26219 273.034 2.03904 270.995 1.2164 268.751C0.393756 266.507 -0.0121425 264.105 0.0225591 261.685V68.872C-0.00518053 66.4571 0.406398 64.0605 1.23216 61.8234C2.05792 59.5862 3.28118 57.5539 4.83069 55.8461C6.38021 54.1383 8.22423 52.7897 10.254 51.8796C12.2838 50.9695 14.4588 50.5164 16.65 50.5469H269.668C271.864 50.5087 274.044 50.9561 276.079 51.8628C278.115 52.7695 279.965 54.1169 281.52 55.8254C283.075 57.534 284.304 59.569 285.133 61.8099C285.962 64.0508 286.375 66.4522 286.347 68.872V261.685Z" fill="#9200D7"/>
<path d="M265.021 0.636087C268.883 0.636087 272.586 2.32693 275.317 5.33666C278.048 8.34638 279.582 12.4284 279.582 16.6848C279.582 20.9412 278.048 25.0233 275.317 28.033C272.586 31.0428 268.883 32.7336 265.021 32.7336C261.175 32.6609 257.503 30.9485 254.779 27.9559C252.054 24.9634 250.487 20.9235 250.407 16.6848C250.407 14.5725 250.786 12.4809 251.521 10.53C252.256 8.57919 253.333 6.80752 254.691 5.31651C256.049 3.8255 257.66 2.64449 259.432 1.84132C261.205 1.03815 263.104 0.628597 265.021 0.636087Z" fill="#9200D7"/>
<path d="M29.1452 294.407C31.7188 294.407 34.2346 295.248 36.3744 296.824C38.5143 298.4 40.1826 300.64 41.1674 303.261C42.1523 305.881 42.4095 308.765 41.9074 311.547C41.4054 314.329 40.1665 316.884 38.3467 318.89C36.5269 320.896 34.2083 322.261 31.6842 322.815C29.16 323.368 26.5433 323.084 24.1656 321.999C21.7879 320.913 19.7561 319.075 18.3263 316.716C16.8965 314.358 16.1327 311.585 16.1327 308.749C16.119 306.861 16.4462 304.99 17.0953 303.243C17.7443 301.496 18.7024 299.909 19.9134 298.574C21.1245 297.239 22.5643 296.183 24.1492 295.468C25.7342 294.753 27.4326 294.392 29.1452 294.407Z" fill="#9200D7"/>
<path d="M198.358 308.749C199.717 308.641 201.081 308.842 202.366 309.341C203.65 309.84 204.829 310.625 205.826 311.647C206.823 312.67 207.619 313.908 208.163 315.284C208.707 316.661 208.987 318.146 208.987 319.648C208.987 321.149 208.707 322.634 208.163 324.011C207.619 325.387 206.823 326.625 205.826 327.648C204.829 328.67 203.65 329.455 202.366 329.954C201.081 330.453 199.717 330.654 198.358 330.546H88.011C86.6524 330.654 85.2883 330.453 84.0034 329.954C82.7186 329.455 81.5403 328.67 80.5429 327.648C79.5456 326.625 78.7502 325.387 78.2063 324.011C77.6624 322.634 77.3818 321.149 77.3818 319.648C77.3818 318.146 77.6624 316.661 78.2063 315.284C78.7502 313.908 79.5456 312.67 80.5429 311.647C81.5403 310.625 82.7186 309.84 84.0034 309.341C85.2883 308.842 86.6524 308.641 88.011 308.749H198.358Z" fill="#9200D7"/>
<path d="M19.7998 72.343H267.087V237.383H19.7998V72.343Z" fill="#F4F3F4"/>
<path d="M143.159 125.725C148.51 125.725 153.741 127.474 158.191 130.751C162.64 134.028 166.108 138.685 168.156 144.134C170.204 149.583 170.74 155.579 169.696 161.364C168.652 167.149 166.075 172.462 162.291 176.633C158.507 180.803 153.686 183.644 148.437 184.794C143.189 185.945 137.749 185.354 132.804 183.097C127.86 180.84 123.634 177.018 120.661 172.114C117.688 167.21 116.101 161.444 116.101 155.546C116.074 151.622 116.755 147.73 118.105 144.098C119.455 140.467 121.447 137.167 123.965 134.392C126.483 131.617 129.476 129.421 132.772 127.933C136.067 126.445 139.598 125.695 143.159 125.725ZM153.073 155.546C153.083 153.383 152.51 151.264 151.427 149.46C150.344 147.656 148.799 146.246 146.989 145.411C145.178 144.575 143.183 144.35 141.256 144.765C139.33 145.181 137.558 146.217 136.167 147.743C134.775 149.269 133.825 151.215 133.439 153.336C133.052 155.458 133.246 157.657 133.994 159.657C134.743 161.657 136.014 163.367 137.645 164.57C139.277 165.774 141.196 166.416 143.159 166.416C145.779 166.416 148.293 165.273 150.151 163.236C152.009 161.199 153.059 158.434 153.073 155.546Z" fill="#9200D7"/>
<path d="M191.077 120.546C195.203 127.444 198.03 135.185 199.391 143.31C196.542 143.597 193.897 145.057 191.982 147.399C190.068 149.741 189.025 152.793 189.063 155.945C189.106 159.071 190.176 162.075 192.075 164.399C193.974 166.722 196.573 168.207 199.391 168.579C198.049 176.586 195.219 184.201 191.077 190.945C188.95 189.151 186.305 188.269 183.632 188.464C180.96 188.659 178.442 189.917 176.548 192.005C174.654 194.092 173.513 196.867 173.336 199.812C173.159 202.757 173.959 205.674 175.586 208.018C169.443 212.815 162.372 215.971 154.932 217.237C154.66 214.103 153.333 211.195 151.21 209.087C149.088 206.98 146.325 205.827 143.469 205.855C140.64 205.916 137.928 207.101 135.83 209.193C133.733 211.285 132.393 214.142 132.057 217.237C124.776 215.724 117.853 212.587 111.712 208.018C113.34 205.674 114.14 202.757 113.963 199.812C113.786 196.867 112.644 194.092 110.75 192.005C108.856 189.917 106.339 188.659 103.667 188.464C100.994 188.269 98.3481 189.151 96.2211 190.945C92.1673 184.15 89.3444 176.555 87.9077 168.579C90.7515 168.28 93.39 166.816 95.3021 164.477C97.2142 162.138 98.2608 159.093 98.235 155.945C98.1006 152.849 96.999 149.9 95.1168 147.597C93.2345 145.294 90.6874 143.78 87.9077 143.31C89.586 135.291 92.3909 127.611 96.2211 120.546C98.3481 122.34 100.994 123.222 103.667 123.027C106.339 122.832 108.856 121.573 110.75 119.486C112.644 117.399 113.786 114.624 113.963 111.679C114.14 108.733 113.34 105.817 111.712 103.473C117.789 98.7848 124.74 95.6541 132.057 94.3105C132.316 97.4399 133.634 100.348 135.748 102.456C137.862 104.565 140.617 105.72 143.469 105.693C146.277 105.545 148.953 104.33 151.043 102.256C153.132 100.181 154.506 97.3742 154.932 94.3105C162.12 96.0677 168.984 99.1665 175.225 103.473C173.426 105.831 172.483 108.84 172.578 111.92C172.674 114.999 173.8 117.93 175.741 120.148C177.905 122.057 180.577 123.129 183.348 123.201C186.119 123.273 188.834 122.34 191.077 120.546ZM168.667 155.546C168.667 149.986 167.171 144.55 164.368 139.927C161.565 135.304 157.581 131.7 152.92 129.573C148.259 127.445 143.131 126.888 138.183 127.973C133.234 129.058 128.689 131.735 125.122 135.667C121.554 139.599 119.125 144.608 118.141 150.062C117.156 155.515 117.662 161.168 119.592 166.305C121.523 171.442 124.793 175.833 128.987 178.922C133.182 182.011 138.114 183.66 143.159 183.66C146.509 183.66 149.825 182.933 152.92 181.52C156.015 180.107 158.827 178.036 161.196 175.426C163.565 172.815 165.444 169.716 166.726 166.305C168.008 162.894 168.667 159.238 168.667 155.546Z" fill="#FFDD88"/>
<path d="M278.033 312.164C279.28 312.164 280.475 312.71 281.356 313.681C282.237 314.652 282.732 315.969 282.732 317.343C282.732 318.716 282.237 320.034 281.356 321.005C280.475 321.976 279.28 322.522 278.033 322.522C277.445 322.585 276.852 322.513 276.291 322.311C275.729 322.109 275.211 321.781 274.77 321.348C274.328 320.916 273.973 320.387 273.726 319.796C273.479 319.204 273.346 318.563 273.334 317.912C273.278 317.189 273.356 316.461 273.566 315.773C273.775 315.085 274.11 314.452 274.551 313.913C274.991 313.374 275.528 312.941 276.127 312.64C276.726 312.339 277.375 312.177 278.033 312.164Z" fill="#F4F3F4"/>
<path d="M225.932 290.936C226.864 290.925 227.778 291.219 228.557 291.781C229.337 292.343 229.947 293.148 230.311 294.093C230.674 295.038 230.775 296.081 230.599 297.09C230.424 298.098 229.981 299.026 229.325 299.756C228.67 300.486 227.833 300.985 226.92 301.19C226.007 301.394 225.06 301.295 224.198 300.905C223.337 300.514 222.6 299.851 222.081 298.998C221.562 298.145 221.286 297.141 221.286 296.115C221.286 294.751 221.773 293.442 222.643 292.473C223.513 291.503 224.695 290.951 225.932 290.936Z" fill="#F4F3F4"/>
<path d="M219.685 4.05036C220.616 4.03908 221.53 4.33323 222.309 4.89539C223.089 5.45755 223.699 6.26237 224.062 7.20764C224.426 8.1529 224.526 9.19594 224.351 10.2043C224.175 11.2126 223.732 12.1407 223.077 12.8706C222.422 13.6006 221.585 14.0996 220.672 14.3041C219.759 14.5086 218.811 14.4093 217.95 14.0191C217.088 13.6288 216.352 12.9651 215.833 12.1123C215.315 11.2594 215.037 10.2559 215.037 9.22924C215.037 7.86552 215.525 6.55683 216.395 5.58723C217.266 4.61763 218.447 4.06535 219.685 4.05036Z" fill="#F4F3F4"/>
<path d="M147.858 253.603C148.501 254.269 149.015 255.071 149.37 255.961C149.724 256.851 149.913 257.81 149.924 258.782C149.968 259.755 149.805 260.725 149.446 261.615C149.087 262.505 148.543 263.289 147.858 263.904C147.264 264.631 146.54 265.213 145.731 265.615C144.922 266.016 144.047 266.228 143.16 266.237C141.378 266.194 139.68 265.394 138.42 264.006C137.16 262.617 136.434 260.746 136.395 258.782C136.339 257.794 136.503 256.806 136.872 255.904C137.241 255.002 137.804 254.212 138.512 253.603C139.11 252.902 139.829 252.339 140.628 251.948C141.426 251.557 142.286 251.346 143.16 251.327C144.055 251.222 144.959 251.377 145.784 251.776C146.608 252.175 147.323 252.805 147.858 253.603Z" fill="#F4F3F4"/>
<path d="M76.5482 4.05005C77.4776 4.05005 78.3857 4.3538 79.1584 4.92286C79.9311 5.49192 80.5336 6.30078 80.8893 7.2471C81.2449 8.19341 81.3378 9.23469 81.1565 10.2393C80.9752 11.2439 80.5278 12.1666 79.8707 12.8909C79.2135 13.6152 78.3762 14.1085 77.4647 14.3083C76.5532 14.5081 75.6085 14.4055 74.7499 14.0136C73.8913 13.6216 73.1571 12.9578 72.6408 12.1061C72.1245 11.2545 71.8491 10.2532 71.8491 9.22893C71.8491 7.85541 72.3445 6.53817 73.2258 5.56694C74.107 4.59572 75.302 4.05005 76.5482 4.05005Z" fill="#F4F3F4"/>
<path d="M66.6337 290.936C67.5652 290.925 68.4789 291.219 69.2584 291.781C70.0379 292.343 70.6484 293.148 71.012 294.093C71.3756 295.038 71.4755 296.081 71.3 297.09C71.1246 298.098 70.6812 299.026 70.0261 299.756C69.3711 300.486 68.5343 300.985 67.6215 301.19C66.7086 301.394 65.7613 301.295 64.8997 300.905C64.0381 300.514 63.3011 299.851 62.7824 298.998C62.2638 298.145 61.9864 297.141 61.9863 296.115C61.9863 294.751 62.4746 293.442 63.3447 292.473C64.2148 291.503 65.3965 290.951 66.6337 290.936Z" fill="#F4F3F4"/>
<path d="M37.5106 29.319C38.6653 29.4529 39.7341 30.0533 40.5109 31.0043C41.2878 31.9554 41.718 33.1897 41.718 34.4694C41.718 35.749 41.2878 36.9834 40.5109 37.9344C39.7341 38.8854 38.6653 39.4858 37.5106 39.6198C36.8556 39.6958 36.1936 39.6192 35.5673 39.3949C34.9409 39.1707 34.3643 38.804 33.8748 38.3183C33.3854 37.8327 32.9943 37.2391 32.7264 36.576C32.4585 35.9129 32.3198 35.1952 32.3198 34.4694C32.3198 33.7435 32.4585 33.0258 32.7264 32.3628C32.9943 31.6997 33.3854 31.1062 33.8748 30.6205C34.3643 30.1349 34.9409 29.768 35.5673 29.5438C36.1936 29.3196 36.8556 29.243 37.5106 29.319Z" fill="#F4F3F4"/>
<path d="M231.148 179.619C231.197 180.522 231.545 181.374 232.125 182.014C232.705 182.654 233.478 183.037 234.298 183.091H267.087V175.635H234.298C233.479 175.891 232.745 176.404 232.186 177.111C231.627 177.819 231.266 178.69 231.148 179.619Z" fill="#9200D7"/>
<path d="M231.148 161.863C231.209 162.756 231.562 163.594 232.141 164.222C232.721 164.85 233.487 165.225 234.298 165.278H267.087V157.823H234.298C233.435 158.003 232.653 158.501 232.081 159.235C231.508 159.969 231.179 160.896 231.148 161.863Z" fill="#9200D7"/>
<path d="M231.147 144.05C231.206 144.949 231.557 145.794 232.136 146.432C232.714 147.069 233.481 147.456 234.296 147.522H267.086V140.066H234.296C233.406 140.153 232.581 140.617 231.994 141.359C231.407 142.102 231.103 143.066 231.147 144.05Z" fill="#9200D7"/>
<path d="M231.148 125.725C231.209 126.618 231.562 127.457 232.141 128.084C232.721 128.712 233.487 129.088 234.298 129.14H267.087V121.685H234.298C233.471 121.945 232.733 122.466 232.173 123.184C231.613 123.902 231.256 124.786 231.148 125.725Z" fill="#9200D7"/>
<path d="M231.148 107.912C231.209 108.805 231.562 109.644 232.141 110.272C232.721 110.9 233.487 111.275 234.298 111.327H267.087V103.872H234.298C233.478 104.144 232.746 104.67 232.188 105.385C231.63 106.101 231.269 106.978 231.148 107.912Z" fill="#9200D7"/>
<path d="M55.1702 179.619C55.1106 178.736 54.765 177.905 54.1964 177.278C53.6278 176.651 52.8741 176.271 52.0722 176.205H19.2832V183.66H52.0722C52.8856 183.385 53.6099 182.857 54.1592 182.141C54.7085 181.425 55.0594 180.549 55.1702 179.619Z" fill="#9200D7"/>
<path d="M55.1702 161.863C55.1226 160.969 54.7819 160.125 54.2122 159.486C53.6424 158.848 52.8824 158.459 52.0722 158.392H19.2832V165.847H52.0722C52.8784 165.575 53.598 165.057 54.1466 164.351C54.6952 163.646 55.0502 162.783 55.1702 161.863Z" fill="#9200D7"/>
<path d="M55.1702 144.05C55.1106 143.166 54.765 142.336 54.1964 141.709C53.6278 141.082 52.8741 140.701 52.0722 140.635H19.2832V148.091H52.0722C52.8824 147.809 53.6033 147.28 54.1516 146.565C54.7 145.85 55.0534 144.978 55.1702 144.05Z" fill="#9200D7"/>
<path d="M55.1702 125.725C55.1225 124.831 54.7819 123.987 54.2121 123.348C53.6424 122.71 52.8824 122.321 52.0722 122.253H19.2832V129.709H52.0722C52.9531 129.608 53.765 129.139 54.3414 128.398C54.9178 127.656 55.2146 126.7 55.1702 125.725Z" fill="#9200D7"/>
<path d="M55.1702 107.912C55.1226 107.018 54.7819 106.174 54.2122 105.535C53.6424 104.897 52.8824 104.508 52.0722 104.44H19.2832V111.953H52.0722C52.8793 111.665 53.5972 111.134 54.1447 110.42C54.6922 109.706 55.0475 108.837 55.1702 107.912Z" fill="#9200D7"/>
</g>
<defs>
<clipPath id="clip0_2060_1177">
<rect width="286.324" height="329.91" fill="white" transform="translate(0.0234375 0.635986)"/>
</clipPath>
</defs>
</svg>
