<svg width="1057" height="69" viewBox="0 0 1057 69" fill="none" xmlns="http://www.w3.org/2000/svg">
<path d="M1023.24 9.88379C1009.38 9.88379 998.092 20.7527 998.087 34.1103C998.083 38.3819 999.244 42.5508 1001.44 46.2227L997.875 58.7768L1011.21 55.408C1014.92 57.3486 1019.05 58.3608 1023.23 58.3579H1023.24C1037.11 58.3579 1048.39 47.4874 1048.4 34.1298C1048.4 27.6596 1045.79 21.5692 1041.04 16.9912C1036.29 12.4116 1029.97 9.88542 1023.24 9.88379ZM1023.24 54.2656H1023.23C1019.48 54.2656 1015.8 53.2942 1012.59 51.4591L1011.83 51.0223L1003.91 53.0204L1006.03 45.5887L1005.53 44.8276C1003.44 41.6433 1002.33 37.918 1002.33 34.1103C1002.34 23.0067 1011.72 13.9761 1023.25 13.9761C1028.83 13.9778 1034.08 16.0753 1038.03 19.8808C1041.98 23.6863 1044.15 28.7467 1044.15 34.1282C1044.15 45.2318 1034.77 54.2656 1023.24 54.2656H1023.24ZM1034.71 39.1821C1034.08 38.8806 1030.99 37.4154 1030.41 37.2117C1029.84 37.0112 1029.42 36.9069 1029 37.5132C1028.58 38.1195 1027.38 39.4836 1027.01 39.8861C1026.65 40.2903 1026.28 40.3392 1025.65 40.0377C1025.02 39.7346 1022.99 39.0957 1020.6 37.0324C1018.73 35.4287 1017.46 33.4469 1017.1 32.839C1016.73 32.2344 1017.06 31.9068 1017.37 31.6053C1017.66 31.3364 1018 30.8996 1018.32 30.546C1018.63 30.1923 1018.73 29.9397 1018.94 29.5355C1019.15 29.1329 1019.05 28.7777 1018.89 28.4762C1018.73 28.1714 1017.48 25.1922 1016.95 23.9813C1016.44 22.8013 1015.92 22.9594 1015.54 22.9398C1015.17 22.9235 1014.75 22.9187 1014.33 22.9187C1013.92 22.9187 1013.23 23.0702 1012.66 23.6765C1012.08 24.2828 1010.46 25.7463 1010.46 28.7255C1010.46 31.7063 1012.71 34.5845 1013.02 34.9887C1013.34 35.3912 1017.46 41.5078 1023.76 44.1317C1025.26 44.7526 1026.43 45.1258 1027.35 45.4062C1028.85 45.8674 1030.22 45.8006 1031.3 45.6457C1032.51 45.4713 1035.02 44.1822 1035.55 42.7692C1036.07 41.3562 1036.07 40.1436 1035.91 39.891C1035.76 39.6384 1035.34 39.4868 1034.71 39.1821V39.1821Z" fill="white"/>
<path d="M798.094 22.879C798.128 23.3739 798.128 23.8688 798.128 24.3682C798.128 39.5865 786.543 57.1378 765.358 57.1378V57.1287C759.1 57.1378 752.972 55.3453 747.704 51.9655C748.614 52.0749 749.529 52.1297 750.446 52.132C755.632 52.1365 760.669 50.3964 764.749 47.1922C759.821 47.0987 755.499 43.8854 753.99 39.1943C755.716 39.5272 757.495 39.4588 759.189 38.9958C753.816 37.9103 749.951 33.1895 749.951 27.707C749.951 27.6568 749.951 27.6089 749.951 27.561C751.552 28.4527 753.344 28.9476 755.178 29.0024C750.117 25.6203 748.557 18.888 751.613 13.6244C757.461 20.8197 766.088 25.1938 775.349 25.6568C774.421 21.6566 775.689 17.4649 778.681 14.653C783.32 10.2925 790.616 10.516 794.976 15.1524C797.555 14.6439 800.028 13.6974 802.29 12.3564C801.43 15.0224 799.631 17.2871 797.227 18.7261C799.51 18.457 801.74 17.8458 803.841 16.913C802.294 19.2301 800.347 21.2484 798.094 22.879Z" fill="white"/>
<path fill-rule="evenodd" clip-rule="evenodd" d="M281.046 9.07031C274.185 9.07031 273.326 9.09894 270.631 9.22188C267.942 9.34482 266.104 9.77258 264.498 10.3974C262.814 11.0306 261.286 12.0242 260.023 13.3109C258.738 14.5725 257.744 16.0989 257.11 17.7838C256.488 19.3904 256.059 21.2294 255.936 23.9189C255.814 26.6118 255.784 27.469 255.784 34.3317C255.784 41.1943 255.813 42.0516 255.936 44.7461C256.059 47.4356 256.486 49.2729 257.111 50.8796C257.744 52.5636 258.738 54.0911 260.025 55.3542C261.286 56.6387 262.813 57.6329 264.498 58.2677C266.104 58.8908 267.942 59.3185 270.631 59.4415C273.326 59.5644 274.185 59.593 281.046 59.593C287.907 59.593 288.765 59.5644 291.46 59.4415C294.149 59.3185 295.987 58.8908 297.593 58.266C299.278 57.6328 300.805 56.6391 302.068 55.3525C303.353 54.0909 304.347 52.5645 304.982 50.8796C305.605 49.2729 306.032 47.4356 306.155 44.7461C306.278 42.0516 306.307 41.1927 306.307 34.3317C306.307 27.4707 306.278 26.6118 306.155 23.9173C306.032 21.2278 305.605 19.3904 304.98 17.7838C304.346 16.0981 303.351 14.5711 302.066 13.3092C300.805 12.0246 299.278 11.0304 297.593 10.3957C295.987 9.77426 294.148 9.34482 291.458 9.22188C288.765 9.10063 287.908 9.07031 281.046 9.07031ZM281.046 13.6224C287.79 13.6224 288.59 13.6477 291.255 13.7689C293.717 13.8818 295.054 14.291 295.945 14.6396C297.124 15.096 297.966 15.645 298.85 16.5275C299.734 17.4116 300.281 18.2537 300.738 19.4325C301.085 20.3234 301.495 21.6606 301.608 24.1227C301.73 26.7869 301.755 27.5869 301.755 34.3317C301.755 41.0765 301.73 41.8764 301.608 44.5406C301.495 47.0028 301.086 48.3399 300.738 49.2308C300.333 50.3281 299.688 51.3208 298.85 52.1359C298.035 52.9745 297.042 53.6197 295.945 54.0238C295.054 54.3707 293.717 54.7816 291.255 54.8944C288.59 55.0157 287.792 55.0409 281.046 55.0409C274.299 55.0409 273.501 55.0157 270.837 54.8944C268.374 54.7816 267.037 54.3724 266.146 54.0238C265.049 53.6195 264.056 52.9744 263.241 52.1359C262.403 51.3207 261.758 50.328 261.353 49.2308C261.007 48.3399 260.596 47.0028 260.483 44.5406C260.362 41.8764 260.336 41.0765 260.336 34.3317C260.336 27.5869 260.362 26.7869 260.483 24.1227C260.596 21.6606 261.005 20.3234 261.353 19.4325C261.81 18.2537 262.359 17.4116 263.241 16.5275C264.056 15.6889 265.049 15.0437 266.146 14.6396C267.037 14.2927 268.374 13.8818 270.837 13.7689C273.501 13.6477 274.301 13.6224 281.046 13.6224V13.6224Z" fill="white"/>
<path fill-rule="evenodd" clip-rule="evenodd" d="M281.046 42.7593C279.939 42.7593 278.843 42.5412 277.82 42.1177C276.798 41.6941 275.868 41.0732 275.086 40.2905C274.303 39.5078 273.682 38.5786 273.259 37.556C272.835 36.5333 272.617 35.4373 272.617 34.3304C272.617 33.2235 272.835 32.1274 273.259 31.1048C273.682 30.0822 274.303 29.153 275.086 28.3703C275.868 27.5876 276.798 26.9667 277.82 26.5431C278.843 26.1195 279.939 25.9015 281.046 25.9015C283.281 25.9015 285.425 26.7896 287.006 28.3703C288.587 29.951 289.475 32.0949 289.475 34.3304C289.475 36.5659 288.587 38.7098 287.006 40.2905C285.425 41.8712 283.281 42.7593 281.046 42.7593V42.7593ZM281.046 21.346C277.602 21.346 274.3 22.714 271.865 25.1491C269.43 27.5841 268.062 30.8867 268.062 34.3304C268.062 37.774 269.43 41.0767 271.865 43.5117C274.3 45.9467 277.602 47.3147 281.046 47.3147C284.49 47.3147 287.792 45.9467 290.227 43.5117C292.662 41.0767 294.03 37.774 294.03 34.3304C294.03 30.8867 292.662 27.5841 290.227 25.1491C287.792 22.714 284.49 21.346 281.046 21.346V21.346ZM297.808 21.1103C297.808 21.9243 297.484 22.705 296.909 23.2806C296.333 23.8562 295.552 24.1795 294.738 24.1795C293.924 24.1795 293.144 23.8562 292.568 23.2806C291.992 22.705 291.669 21.9243 291.669 21.1103C291.669 20.2963 291.992 19.5156 292.568 18.94C293.144 18.3644 293.924 18.041 294.738 18.041C295.552 18.041 296.333 18.3644 296.909 18.94C297.484 19.5156 297.808 20.2963 297.808 21.1103" fill="white"/>
<path d="M61.7501 34.5012C61.7501 18.9046 49.1849 6.2627 33.682 6.2627C18.179 6.2627 5.61377 18.9046 5.61377 34.5012C5.61377 48.5989 15.8755 60.2808 29.2958 62.3991V42.6653H22.1703V34.4993H29.2958V28.2794C29.2958 21.2025 33.4855 17.2916 39.8981 17.2916C42.9669 17.2916 46.1816 17.8436 46.1816 17.8436V24.7933H42.6394C39.1534 24.7933 38.0681 26.9714 38.0681 29.2056V34.5012H45.8523L44.608 42.6634H38.0681V62.3991C51.4884 60.2808 61.7501 48.5989 61.7501 34.5012Z" fill="white"/>
<path d="M553.67 12.7852V55.8781C553.67 56.8634 553.279 57.8083 552.582 58.505C551.886 59.2017 550.941 59.593 549.956 59.593H506.863C505.877 59.593 504.932 59.2017 504.236 58.505C503.539 57.8083 503.148 56.8634 503.148 55.8781V12.7852C503.148 11.8 503.539 10.8551 504.236 10.1584C504.932 9.4617 505.877 9.07031 506.863 9.07031H549.956C550.941 9.07031 551.886 9.4617 552.582 10.1584C553.279 10.8551 553.67 11.8 553.67 12.7852V12.7852ZM518.007 28.3878H510.578V52.1632H518.007V28.3878ZM518.676 20.215C518.68 19.653 518.573 19.0958 518.362 18.575C518.15 18.0543 517.838 17.5803 517.444 17.1802C517.049 16.78 516.579 16.4615 516.062 16.2428C515.544 16.0242 514.988 15.9096 514.426 15.9057H514.292C513.15 15.9057 512.053 16.3598 511.245 17.1679C510.437 17.9761 509.983 19.0721 509.983 20.215C509.983 21.3579 510.437 22.454 511.245 23.2622C512.053 24.0703 513.15 24.5243 514.292 24.5243V24.5243C514.854 24.5382 515.414 24.4411 515.938 24.2387C516.463 24.0363 516.942 23.7326 517.349 23.3448C517.756 22.957 518.083 22.4928 518.311 21.9788C518.538 21.4647 518.663 20.9108 518.676 20.3488V20.215ZM546.241 37.7197C546.241 30.5722 541.694 27.7934 537.176 27.7934C535.697 27.7194 534.225 28.0344 532.905 28.7071C531.586 29.3798 530.466 30.3866 529.657 31.6272H529.449V28.3878H522.465V52.1632H529.895V39.5177C529.788 38.2226 530.196 36.9374 531.03 35.9413C531.865 34.9452 533.059 34.3188 534.353 34.1979H534.635C536.998 34.1979 538.751 35.6839 538.751 39.4285V52.1632H546.181L546.241 37.7197Z" fill="white"/>
</svg>
