<svg width="270" height="284" viewBox="0 0 270 284" fill="none" xmlns="http://www.w3.org/2000/svg">
<g clip-path="url(#clip0_2060_1038)">
<rect width="269.322" height="282.844" transform="translate(0.298828 0.581055)" fill="white"/>
<path d="M246.081 195.179H23.8857V220.25H246.081V195.179Z" fill="#9200D7"/>
<path d="M245.564 79.5746V198.96H23.8857V79.5746C23.8857 72.9781 26.3609 66.6519 30.7667 61.9875C35.1725 57.3231 41.1479 54.7026 47.3786 54.7026H222.165C228.38 54.729 234.331 57.361 238.717 62.0226C243.102 66.6841 245.564 72.9953 245.564 79.5746Z" fill="#F4F3F4"/>
<path d="M26.7048 0.581055C30.264 0.581055 33.7431 1.69846 36.7024 3.79191C39.6618 5.88536 41.9684 8.86081 43.3305 12.3421C44.6925 15.8234 45.0492 19.6542 44.3548 23.3499C43.6605 27.0456 41.9464 30.4403 39.4297 33.1048C36.913 35.7692 33.7063 37.5837 30.2155 38.3189C26.7247 39.054 23.1064 38.6767 19.8181 37.2347C16.5299 35.7927 13.7192 33.3506 11.7419 30.2176C9.76449 27.0845 8.70947 23.4011 8.70947 19.633C8.72188 14.5842 10.6215 9.7458 13.9936 6.17572C17.3658 2.60564 21.9359 0.594186 26.7048 0.581055Z" fill="#9200D7"/>
<path d="M248.9 1.07828C251.242 1.07828 253.531 1.8134 255.479 3.19082C257.426 4.56823 258.943 6.52605 259.839 8.8166C260.735 11.1072 260.97 13.6276 260.513 16.0593C260.056 18.4909 258.929 20.7245 257.273 22.4776C255.617 24.2308 253.507 25.4246 251.21 25.9083C248.913 26.392 246.533 26.1438 244.369 25.195C242.206 24.2462 240.356 22.6395 239.055 20.5781C237.754 18.5166 237.06 16.093 237.06 13.6137C237.047 11.9638 237.345 10.3278 237.936 8.80097C238.526 7.27411 239.398 5.88694 240.5 4.72026C241.602 3.55359 242.912 2.63079 244.354 2.00551C245.797 1.38024 247.342 1.06503 248.9 1.07828Z" fill="#9200D7"/>
<path d="M185.423 132.999L183.543 151.056V151.554H166.487L164.091 133.496C167.033 136.058 170.713 137.479 174.522 137.526C178.489 137.152 182.273 135.581 185.423 132.999Z" fill="#9200D7"/>
<path d="M112.925 116.932H100.614V151.554H112.925V116.932Z" fill="#9200D7"/>
<path d="M100.613 116.932H88.3032V151.554H100.613V116.932Z" fill="#9200D7"/>
<path d="M159.816 261.388H112.455V283.475H159.816V261.388Z" fill="#9200D7"/>
<path d="M159.863 261.388H260.742C257.072 268.036 251.844 273.57 245.565 277.455C239.287 281.464 232.081 283.548 224.75 283.474H159.863V261.388Z" fill="#FCC62B"/>
<path d="M112.453 261.388V283.524H44.7466C37.5031 283.5 30.395 281.443 24.1468 277.563C17.8986 273.683 12.734 268.119 9.17871 261.437L112.453 261.388Z" fill="#FCC62B"/>
<path d="M245.564 217.216L260.741 261.388H159.816H112.454H8.70947L23.8859 217.216H245.564Z" fill="#9200D7"/>
<path d="M201.068 154.538C201.996 155.532 202.724 156.714 203.209 158.014C203.693 159.313 203.924 160.703 203.887 162.099C203.862 165.016 202.754 167.804 200.802 169.862C198.85 171.919 196.211 173.08 193.456 173.093H82.1475C80.8304 173.178 79.5115 172.955 78.2852 172.439C77.0589 171.923 75.9552 171.127 75.0526 170.108C74.12 169.126 73.3853 167.954 72.8926 166.663C72.4 165.372 72.1598 163.989 72.1866 162.597C72.2111 159.676 73.318 156.882 75.2689 154.817C77.2197 152.752 79.8584 151.58 82.6173 151.554H194.913C196.078 151.576 197.226 151.852 198.285 152.366C199.344 152.879 200.292 153.619 201.068 154.538Z" fill="#9200D7"/>
<path d="M100.613 85.842L112.924 116.932H100.613H88.3032L100.613 85.842Z" fill="#A5ABAF"/>
<path d="M190.638 119.967C190.682 122.332 190.238 124.679 189.338 126.844C188.437 129.009 187.101 130.94 185.423 132.502C182.525 135.201 178.848 136.779 174.992 136.979C171.175 137.036 167.467 135.621 164.561 133C162.826 131.458 161.422 129.543 160.441 127.381C159.461 125.22 158.927 122.861 158.876 120.464C158.876 111.908 174.522 98.3779 174.522 85.345C179.737 94.4978 190.638 111.411 190.638 119.967Z" fill="#A5ABAF"/>
<path d="M269.292 138.521C269.619 139.369 269.702 140.3 269.529 141.197C269.356 142.094 268.935 142.917 268.32 143.561C267.706 144.205 266.924 144.641 266.075 144.814C265.226 144.988 264.347 144.89 263.55 144.535C262.753 144.179 262.074 143.581 261.598 142.817C261.123 142.052 260.872 141.155 260.878 140.24C260.884 139.324 261.146 138.431 261.632 137.673C262.118 136.916 262.805 136.328 263.607 135.984C264.137 135.75 264.706 135.629 265.28 135.63C265.854 135.631 266.423 135.753 266.953 135.99C267.482 136.226 267.961 136.571 268.363 137.006C268.765 137.441 269.081 137.956 269.292 138.521Z" fill="#F4F3F4"/>
<path d="M215.728 22.6669C216.042 23.5051 216.114 24.4226 215.937 25.3044C215.76 26.1862 215.341 26.993 214.733 27.6236C214.124 28.2541 213.353 28.6803 212.517 28.8486C211.68 29.017 210.815 28.9199 210.03 28.5698C209.246 28.2196 208.576 27.632 208.106 26.8805C207.636 26.129 207.385 25.2471 207.387 24.3456C207.388 23.4441 207.641 22.563 208.113 21.813C208.586 21.0631 209.257 20.4775 210.043 20.13C210.57 19.8734 211.142 19.7359 211.722 19.7261C212.302 19.7164 212.878 19.8346 213.413 20.0732C213.948 20.3118 214.43 20.6656 214.829 21.1121C215.227 21.5587 215.533 22.0882 215.728 22.6669Z" fill="#F4F3F4"/>
<path d="M147.505 9.9333C147.818 10.7714 147.892 11.689 147.715 12.5708C147.538 13.4526 147.118 14.2594 146.51 14.8899C145.901 15.5204 145.13 15.9467 144.293 16.115C143.457 16.2833 142.592 16.1863 141.807 15.8361C141.022 15.486 140.353 14.8983 139.883 14.1468C139.412 13.3953 139.162 12.5135 139.164 11.612C139.165 10.7105 139.418 9.82935 139.89 9.07939C140.363 8.32942 141.034 7.74387 141.82 7.39631C142.347 7.13978 142.919 7.00229 143.499 6.9925C144.079 6.98272 144.655 7.10091 145.19 7.33953C145.725 7.57815 146.207 7.93195 146.605 8.3785C147.004 8.82505 147.31 9.35456 147.505 9.9333Z" fill="#F4F3F4"/>
<path d="M91.6394 29.1836C91.9667 30.0311 92.0486 30.9624 91.8757 31.8595C91.7027 32.7566 91.2826 33.5792 90.6678 34.2231C90.0529 34.8671 89.2715 35.3035 88.4223 35.4769C87.5731 35.6503 86.6944 35.5531 85.8975 35.1974C85.1005 34.8418 84.4208 34.2438 83.9451 33.4791C83.4694 32.7145 83.2187 31.8177 83.2247 30.9021C83.2308 29.9865 83.4937 29.0933 83.9795 28.3358C84.4653 27.5783 85.1521 26.9904 85.9537 26.6466C86.4759 26.3562 87.0523 26.1919 87.6417 26.1654C88.231 26.1389 88.8188 26.2511 89.3623 26.4936C89.9059 26.7362 90.3923 27.1031 90.7859 27.5683C91.1795 28.0334 91.4711 28.5851 91.6394 29.1836Z" fill="#F4F3F4"/>
<path d="M8.70842 97.8801C8.95922 98.434 9.09677 99.0376 9.11277 99.6516C9.12877 100.266 9.02291 100.876 8.80133 101.444C8.57975 102.012 8.24761 102.524 7.82686 102.947C7.40611 103.37 6.90611 103.694 6.35913 103.899C5.82155 104.202 5.22974 104.382 4.6224 104.429C4.01506 104.476 3.40556 104.388 2.83233 104.17C2.2591 103.952 1.73514 103.61 1.29406 103.166C0.852972 102.721 0.504338 102.184 0.270833 101.589C0.0373276 100.994 -0.0758388 100.353 -0.0618298 99.7086C-0.0478208 99.0641 0.0931504 98.4298 0.352278 97.8464C0.611405 97.263 0.982678 96.7434 1.44261 96.3209C1.90254 95.8983 2.44068 95.5822 3.02275 95.3929C3.54986 95.157 4.11613 95.0344 4.68836 95.032C5.2606 95.0296 5.8274 95.1474 6.35626 95.3787C6.88513 95.6101 7.3658 95.9504 7.7695 96.3798C8.17321 96.8091 8.49231 97.3191 8.70842 97.8801Z" fill="#F4F3F4"/>
<path d="M53.2521 236.317H47.0967C46.4057 236.223 45.7708 235.865 45.3107 235.311C44.8506 234.758 44.5972 234.045 44.5972 233.308C44.5972 232.57 44.8506 231.858 45.3107 231.304C45.7708 230.75 46.4057 230.392 47.0967 230.298H53.2521C53.9902 230.344 54.6872 230.672 55.2143 231.221C55.7413 231.77 56.0626 232.502 56.1182 233.283C56.1313 233.685 56.066 234.086 55.9266 234.46C55.7872 234.835 55.5766 235.175 55.3078 235.459C55.039 235.744 54.7179 235.967 54.3643 236.114C54.0106 236.262 53.632 236.331 53.2521 236.317Z" fill="#F4F3F4"/>
<path d="M76.9324 236.317H70.777C70.086 236.223 69.451 235.865 68.9909 235.311C68.5308 234.758 68.2769 234.045 68.2769 233.308C68.2769 232.57 68.5308 231.858 68.9909 231.304C69.451 230.75 70.086 230.392 70.777 230.298H76.9324C77.6704 230.344 78.3675 230.672 78.8945 231.221C79.4216 231.77 79.7429 232.502 79.7984 233.283C79.8116 233.685 79.7463 234.086 79.6069 234.46C79.4675 234.835 79.2568 235.175 78.988 235.459C78.7192 235.744 78.3982 235.967 78.0445 236.114C77.6908 236.262 77.3123 236.331 76.9324 236.317Z" fill="#F4F3F4"/>
<path d="M100.613 236.317H94.4581C93.7671 236.223 93.1322 235.865 92.6721 235.311C92.212 234.758 91.958 234.045 91.958 233.308C91.958 232.57 92.212 231.858 92.6721 231.304C93.1322 230.75 93.7671 230.392 94.4581 230.298H100.613C101.351 230.344 102.049 230.672 102.576 231.221C103.103 231.77 103.423 232.502 103.479 233.283C103.499 233.687 103.439 234.091 103.302 234.469C103.166 234.847 102.955 235.19 102.685 235.476C102.414 235.762 102.091 235.985 101.734 236.13C101.377 236.275 100.995 236.339 100.613 236.317Z" fill="#F4F3F4"/>
<path d="M124.294 236.317H118.374C117.683 236.223 117.048 235.865 116.588 235.311C116.128 234.758 115.874 234.045 115.874 233.308C115.874 232.57 116.128 231.858 116.588 231.304C117.048 230.75 117.683 230.392 118.374 230.298H124.53C125.268 230.344 125.965 230.672 126.492 231.221C127.019 231.77 127.34 232.502 127.396 233.283C127.42 233.71 127.355 234.138 127.205 234.535C127.054 234.932 126.822 235.289 126.525 235.579C126.228 235.87 125.874 236.086 125.488 236.214C125.102 236.342 124.695 236.377 124.294 236.317Z" fill="#F4F3F4"/>
<path d="M148.022 236.317H141.867C141.176 236.223 140.541 235.865 140.081 235.311C139.621 234.758 139.367 234.045 139.367 233.308C139.367 232.57 139.621 231.858 140.081 231.304C140.541 230.75 141.176 230.392 141.867 230.298H148.069C148.798 230.356 149.485 230.688 150.002 231.236C150.52 231.784 150.834 232.51 150.888 233.283C150.909 233.687 150.848 234.091 150.711 234.469C150.574 234.847 150.364 235.19 150.094 235.476C149.824 235.762 149.499 235.985 149.142 236.13C148.785 236.275 148.404 236.339 148.022 236.317Z" fill="#F4F3F4"/>
<path d="M171.702 236.317H165.359C164.955 236.372 164.545 236.336 164.155 236.21C163.766 236.084 163.406 235.871 163.1 235.586C162.794 235.301 162.549 234.951 162.381 234.558C162.213 234.165 162.126 233.739 162.126 233.308C162.126 232.876 162.213 232.45 162.381 232.057C162.549 231.664 162.794 231.314 163.1 231.029C163.406 230.744 163.766 230.532 164.155 230.406C164.545 230.28 164.955 230.243 165.359 230.298H171.514C172.244 230.356 172.93 230.688 173.447 231.236C173.965 231.784 174.279 232.51 174.333 233.283C174.352 233.666 174.299 234.049 174.176 234.41C174.054 234.771 173.864 235.102 173.619 235.385C173.374 235.667 173.078 235.895 172.749 236.055C172.42 236.215 172.064 236.304 171.702 236.317Z" fill="#F4F3F4"/>
<path d="M195.383 236.317H189.228C188.824 236.372 188.413 236.336 188.024 236.21C187.634 236.084 187.275 235.871 186.969 235.586C186.663 235.301 186.418 234.951 186.25 234.558C186.082 234.165 185.996 233.739 185.996 233.308C185.996 232.876 186.082 232.45 186.25 232.057C186.418 231.664 186.663 231.314 186.969 231.029C187.275 230.744 187.634 230.532 188.024 230.406C188.413 230.28 188.824 230.243 189.228 230.298H195.383C196.113 230.356 196.798 230.688 197.316 231.236C197.833 231.784 198.148 232.51 198.202 233.283C198.222 233.682 198.163 234.082 198.029 234.457C197.895 234.831 197.689 235.172 197.424 235.457C197.159 235.742 196.84 235.966 196.489 236.114C196.138 236.262 195.761 236.332 195.383 236.317Z" fill="#F4F3F4"/>
<path d="M219.065 236.317H212.909C212.505 236.372 212.095 236.336 211.705 236.21C211.316 236.084 210.956 235.871 210.65 235.586C210.344 235.301 210.099 234.951 209.931 234.558C209.764 234.165 209.677 233.739 209.677 233.308C209.677 232.876 209.764 232.45 209.931 232.057C210.099 231.664 210.344 231.314 210.65 231.029C210.956 230.744 211.316 230.532 211.705 230.406C212.095 230.28 212.505 230.243 212.909 230.298H219.065C219.794 230.356 220.48 230.688 220.998 231.236C221.515 231.784 221.829 232.51 221.884 233.283C221.904 233.682 221.845 234.082 221.711 234.457C221.576 234.831 221.37 235.172 221.105 235.457C220.84 235.742 220.521 235.966 220.17 236.114C219.819 236.262 219.443 236.332 219.065 236.317Z" fill="#F4F3F4"/>
<path d="M53.2521 248.704H47.0967C46.4057 248.61 45.7708 248.252 45.3107 247.698C44.8506 247.144 44.5972 246.432 44.5972 245.694C44.5972 244.957 44.8506 244.244 45.3107 243.69C45.7708 243.136 46.4057 242.779 47.0967 242.685H53.2521C53.9902 242.731 54.6872 243.058 55.2143 243.607C55.7413 244.156 56.0626 244.889 56.1182 245.669C56.1313 246.072 56.066 246.472 55.9266 246.847C55.7872 247.221 55.5766 247.561 55.3078 247.846C55.039 248.131 54.7179 248.354 54.3643 248.501C54.0106 248.649 53.632 248.718 53.2521 248.704Z" fill="#F4F3F4"/>
<path d="M76.9324 248.704H70.777C70.086 248.61 69.451 248.252 68.9909 247.698C68.5308 247.144 68.2769 246.432 68.2769 245.694C68.2769 244.957 68.5308 244.244 68.9909 243.69C69.451 243.136 70.086 242.779 70.777 242.685H76.9324C77.6704 242.731 78.3675 243.058 78.8945 243.607C79.4216 244.156 79.7429 244.889 79.7984 245.669C79.8116 246.072 79.7463 246.472 79.6069 246.847C79.4675 247.221 79.2568 247.561 78.988 247.846C78.7192 248.131 78.3982 248.354 78.0445 248.501C77.6908 248.649 77.3123 248.718 76.9324 248.704Z" fill="#F4F3F4"/>
<path d="M148.023 248.704H94.8815C94.1905 248.61 93.5555 248.252 93.0954 247.698C92.6353 247.144 92.3813 246.432 92.3813 245.694C92.3813 244.957 92.6353 244.244 93.0954 243.69C93.5555 243.136 94.1905 242.779 94.8815 242.685H148.445C149.175 242.742 149.861 243.075 150.378 243.623C150.896 244.171 151.21 244.897 151.264 245.669C151.12 246.485 150.722 247.226 150.135 247.775C149.548 248.325 148.805 248.652 148.023 248.704Z" fill="#F4F3F4"/>
<path d="M171.702 248.704H165.359C164.955 248.759 164.545 248.722 164.155 248.596C163.766 248.47 163.406 248.257 163.1 247.973C162.794 247.688 162.549 247.337 162.381 246.944C162.213 246.551 162.126 246.125 162.126 245.694C162.126 245.263 162.213 244.837 162.381 244.444C162.549 244.051 162.794 243.7 163.1 243.415C163.406 243.131 163.766 242.918 164.155 242.792C164.545 242.666 164.955 242.629 165.359 242.685H171.514C172.244 242.742 172.93 243.075 173.447 243.623C173.965 244.17 174.279 244.897 174.333 245.669C174.352 246.052 174.299 246.435 174.176 246.796C174.054 247.157 173.864 247.489 173.619 247.771C173.374 248.054 173.078 248.282 172.749 248.442C172.42 248.602 172.064 248.691 171.702 248.704Z" fill="#F4F3F4"/>
<path d="M195.383 248.704H189.228C188.824 248.759 188.413 248.722 188.024 248.596C187.634 248.47 187.275 248.257 186.969 247.973C186.663 247.688 186.418 247.337 186.25 246.944C186.082 246.551 185.996 246.125 185.996 245.694C185.996 245.263 186.082 244.837 186.25 244.444C186.418 244.051 186.663 243.7 186.969 243.415C187.275 243.131 187.634 242.918 188.024 242.792C188.413 242.666 188.824 242.629 189.228 242.685H195.383C196.113 242.742 196.798 243.075 197.316 243.623C197.833 244.17 198.148 244.897 198.202 245.669C198.222 246.069 198.163 246.469 198.029 246.843C197.895 247.217 197.689 247.558 197.424 247.843C197.159 248.129 196.84 248.353 196.489 248.501C196.138 248.649 195.761 248.718 195.383 248.704Z" fill="#F4F3F4"/>
<path d="M219.065 248.704H212.909C212.505 248.759 212.095 248.722 211.705 248.596C211.316 248.47 210.956 248.257 210.65 247.973C210.344 247.688 210.099 247.337 209.931 246.944C209.764 246.551 209.677 246.125 209.677 245.694C209.677 245.263 209.764 244.837 209.931 244.444C210.099 244.051 210.344 243.7 210.65 243.415C210.956 243.131 211.316 242.918 211.705 242.792C212.095 242.666 212.505 242.629 212.909 242.685H219.065C219.794 242.742 220.48 243.075 220.998 243.623C221.515 244.17 221.829 244.897 221.884 245.669C221.904 246.069 221.845 246.469 221.711 246.843C221.576 247.217 221.37 247.558 221.105 247.843C220.84 248.129 220.521 248.353 220.17 248.501C219.819 248.649 219.443 248.718 219.065 248.704Z" fill="#F4F3F4"/>
<path d="M147.036 139.018V151.554H126.221V85.842H147.036V101.412V119.966V139.018Z" fill="#9200D7"/>
<path d="M135.195 139.267C135.25 140.048 135.571 140.78 136.099 141.329C136.626 141.878 137.323 142.206 138.061 142.252H147.035V136.233H138.061C137.671 136.175 137.275 136.213 136.903 136.345C136.53 136.477 136.191 136.699 135.913 136.993C135.635 137.287 135.426 137.646 135.301 138.041C135.177 138.435 135.14 138.855 135.195 139.267Z" fill="#F9E4AA"/>
<path d="M135.194 119.966C135.25 120.747 135.571 121.479 136.098 122.028C136.625 122.577 137.322 122.905 138.06 122.951H147.035V116.932H138.06C137.679 116.91 137.297 116.974 136.94 117.119C136.583 117.264 136.259 117.486 135.989 117.773C135.718 118.059 135.508 118.402 135.371 118.78C135.235 119.158 135.174 119.562 135.194 119.966Z" fill="#F9E4AA"/>
<path d="M135.195 101.412C135.25 102.192 135.571 102.925 136.099 103.474C136.626 104.023 137.323 104.35 138.061 104.396H147.035V98.3773H138.061C137.671 98.3193 137.275 98.3578 136.903 98.4898C136.53 98.6218 136.191 98.8436 135.913 99.1378C135.635 99.4321 135.426 99.7906 135.301 100.185C135.177 100.58 135.14 101 135.195 101.412Z" fill="#F9E4AA"/>
</g>
<defs>
<clipPath id="clip0_2060_1038">
<rect width="269.322" height="282.844" fill="white" transform="translate(0.298828 0.581055)"/>
</clipPath>
</defs>
</svg>
