<svg width="288" height="309" viewBox="0 0 288 309" fill="none" xmlns="http://www.w3.org/2000/svg">
<g clip-path="url(#clip0_2060_1158)">
<path d="M179.439 257.007H107.582V296.064H179.439V257.007Z" fill="white"/>
<path d="M106.547 229.45C83.1419 219.703 63.5924 201.196 51.3192 177.166C39.0459 153.137 34.8306 125.116 39.4112 98.0062C43.9919 70.897 57.0766 46.4264 76.3754 28.877C95.6743 11.3275 119.958 1.8169 144.977 2.00946C169.996 2.20202 194.157 12.0854 213.232 29.9302C232.307 47.7751 245.08 72.4445 249.317 99.6216C253.554 126.799 248.984 154.752 236.407 178.591C223.831 202.429 204.048 220.634 180.522 230.019C169.571 229.45 117.498 229.45 106.547 229.45Z" fill="#9200D7"/>
<path d="M23.2226 243.798C27.7591 243.798 32.1936 245.281 35.9655 248.058C39.7374 250.836 42.6773 254.784 44.4133 259.403C46.1493 264.022 46.6034 269.105 45.7184 274.009C44.8334 278.913 42.6491 283.417 39.4414 286.952C36.2336 290.488 32.1466 292.895 27.6974 293.871C23.2481 294.846 18.6364 294.345 14.4453 292.432C10.2542 290.519 6.67201 287.279 4.15171 283.121C1.63142 278.964 0.286133 274.077 0.286133 269.077C0.286133 265.757 0.879598 262.47 2.03226 259.403C3.18493 256.336 4.87438 253.549 7.00423 251.202C9.13408 248.855 11.6625 246.993 14.4453 245.722C17.2281 244.452 20.2106 243.798 23.2226 243.798Z" fill="#9200D7"/>
<path d="M267.516 189.823C271.439 189.823 275.275 191.105 278.537 193.508C281.799 195.91 284.342 199.325 285.843 203.32C287.345 207.315 287.737 211.711 286.972 215.952C286.206 220.193 284.317 224.088 281.543 227.146C278.769 230.204 275.234 232.286 271.386 233.129C267.538 233.973 263.55 233.54 259.925 231.885C256.3 230.23 253.202 227.428 251.023 223.833C248.843 220.237 247.679 216.011 247.679 211.687C247.679 205.888 249.769 200.327 253.49 196.227C257.21 192.127 262.255 189.823 267.516 189.823Z" fill="#9200D7"/>
<path d="M278.416 115.238C279.346 115.238 280.255 115.542 281.028 116.111C281.801 116.681 282.404 117.49 282.759 118.437C283.115 119.383 283.208 120.425 283.027 121.43C282.845 122.435 282.398 123.358 281.74 124.083C281.083 124.808 280.245 125.301 279.333 125.501C278.421 125.701 277.476 125.598 276.617 125.206C275.758 124.814 275.024 124.15 274.507 123.298C273.991 122.446 273.715 121.444 273.715 120.419C273.715 119.739 273.837 119.065 274.073 118.437C274.309 117.808 274.655 117.237 275.092 116.756C275.528 116.275 276.047 115.893 276.617 115.633C277.188 115.372 277.798 115.238 278.416 115.238Z" fill="#F4F3F4"/>
<path d="M242.979 10.7621C245.576 10.7621 247.68 8.44245 247.68 5.581C247.68 2.71956 245.576 0.399902 242.979 0.399902C240.383 0.399902 238.278 2.71956 238.278 5.581C238.278 8.44245 240.383 10.7621 242.979 10.7621Z" fill="#F4F3F4"/>
<path d="M230.012 269.077C230.944 269.077 231.855 269.382 232.629 269.954C233.404 270.526 234.006 271.338 234.36 272.288C234.715 273.239 234.805 274.283 234.619 275.29C234.433 276.296 233.981 277.219 233.318 277.942C232.655 278.664 231.813 279.153 230.898 279.346C229.983 279.54 229.035 279.429 228.177 279.028C227.319 278.627 226.589 277.954 226.079 277.095C225.569 276.235 225.302 275.228 225.312 274.201C224.795 271.354 226.861 269.077 230.012 269.077Z" fill="#F4F3F4"/>
<path d="M70.0769 262.188C71.011 262.177 71.9269 262.473 72.7078 263.038C73.4887 263.603 74.0993 264.411 74.4615 265.36C74.8237 266.309 74.9212 267.356 74.7415 268.366C74.5618 269.376 74.1131 270.305 73.4525 271.033C72.792 271.761 71.9496 272.255 71.0329 272.453C70.1163 272.651 69.1666 272.544 68.3056 272.145C67.4445 271.746 66.711 271.073 66.1984 270.212C65.6858 269.351 65.4173 268.342 65.4275 267.312C65.4275 265.953 65.9174 264.65 66.7893 263.689C67.6612 262.728 68.8439 262.188 70.0769 262.188Z" fill="#F4F3F4"/>
<path d="M40.9413 3.87337C41.8711 3.87337 42.7802 4.17717 43.5533 4.74647C44.3263 5.31578 44.9288 6.1249 45.2846 7.07163C45.6404 8.01835 45.7334 9.06017 45.552 10.0652C45.3706 11.0702 44.923 11.9935 44.2655 12.7181C43.6081 13.4426 42.7704 13.936 41.8585 14.1359C40.9466 14.3358 40.0015 14.2332 39.1425 13.841C38.2836 13.4489 37.5494 12.7849 37.0329 11.9329C36.5163 11.0808 36.2405 10.079 36.2405 9.05432C36.2336 8.37181 36.3504 7.69464 36.5842 7.06259C36.818 6.43055 37.1641 5.85636 37.602 5.37372C38.0399 4.89108 38.5609 4.50982 39.1343 4.25215C39.7078 3.99447 40.3221 3.86574 40.9413 3.87337Z" fill="#F4F3F4"/>
<path d="M8.65389 154.239C9.58365 154.239 10.4928 154.542 11.2658 155.112C12.0389 155.681 12.6414 156.49 12.9972 157.437C13.353 158.384 13.4459 159.426 13.2645 160.431C13.0831 161.436 12.6355 162.359 11.9781 163.083C11.3207 163.808 10.483 164.301 9.5711 164.501C8.65921 164.701 7.71409 164.598 6.85511 164.206C5.99612 163.814 5.26198 163.15 4.74543 162.298C4.22889 161.446 3.95308 160.444 3.95308 159.42C3.4365 156.801 5.50271 154.239 8.65389 154.239Z" fill="#F4F3F4"/>
<path d="M217.511 120.989C216.695 120.923 215.928 120.536 215.35 119.898C214.771 119.261 214.42 118.415 214.36 117.516C214.36 96.8137 206.898 76.9593 193.616 62.3206C180.334 47.6818 162.319 39.4579 143.536 39.4579C124.752 39.4579 106.738 47.6818 93.4556 62.3206C80.1735 76.9593 72.7117 96.8137 72.7117 117.516C72.7689 118.005 72.7306 118.503 72.5997 118.975C72.4689 119.447 72.2485 119.883 71.9528 120.253C71.657 120.624 71.2929 120.921 70.8848 121.124C70.4768 121.327 70.0342 121.433 69.5864 121.433C69.1386 121.433 68.6957 121.327 68.2877 121.124C67.8797 120.921 67.5158 120.624 67.2201 120.253C66.9244 119.883 66.7037 119.447 66.5728 118.975C66.4419 118.503 66.4036 118.005 66.4609 117.516C66.4609 94.9865 74.5814 73.3798 89.0357 57.4491C103.49 41.5184 123.094 32.5686 143.536 32.5686C163.977 32.5686 183.582 41.5184 198.036 57.4491C212.49 73.3798 220.611 94.9865 220.611 117.516C220.563 118.41 220.222 119.255 219.652 119.894C219.082 120.532 218.322 120.922 217.511 120.989Z" fill="#F4F3F4"/>
<path d="M163.322 100.321C158.73 100.321 154.283 102.1 150.761 105.348C147.239 108.595 144.864 113.103 144.052 118.085H143.019C142.286 113.063 139.933 108.501 136.394 105.238C132.854 101.975 128.365 100.229 123.751 100.321C118.503 100.321 113.471 102.618 109.76 106.708C106.05 110.797 103.965 116.344 103.965 122.127C103.965 127.91 106.05 133.457 109.76 137.546C113.471 141.636 118.503 143.933 123.751 143.933C126.97 143.938 130.137 143.042 132.956 141.33C135.775 139.617 138.154 137.143 139.868 134.14V230.019C139.928 230.918 140.279 231.764 140.858 232.401C141.436 233.039 142.203 233.426 143.019 233.492C143.83 233.425 144.591 233.036 145.161 232.397C145.731 231.758 146.071 230.913 146.119 230.019V133.571C148.398 137.579 151.81 140.65 155.828 142.312C159.846 143.975 164.249 144.135 168.358 142.77C172.467 141.405 176.056 138.589 178.571 134.757C181.087 130.924 182.39 126.286 182.28 121.557C182.35 118.777 181.909 116.009 180.985 113.42C180.061 110.831 178.672 108.475 176.902 106.492C175.132 104.509 173.016 102.94 170.683 101.88C168.349 100.819 165.846 100.289 163.322 100.321Z" fill="#F4F3F4"/>
<path d="M179.439 286.841H107.582V308.647H179.439V286.841Z" fill="#9200D7"/>
<path d="M179.439 229.45V265.604H107.582V229.45H143.537H179.439Z" fill="#9200D7"/>
</g>
<defs>
<clipPath id="clip0_2060_1158">
<rect width="286.965" height="308.247" fill="white" transform="translate(0.286133 0.399902)"/>
</clipPath>
</defs>
</svg>
