<svg width="263" height="287" viewBox="0 0 263 287" fill="none" xmlns="http://www.w3.org/2000/svg">
<g clip-path="url(#clip0_2060_1110)">
<path d="M47.7499 12.6913C49.5255 12.6815 51.2638 13.2306 52.7441 14.2689C54.2243 15.3073 55.3801 16.7879 56.0639 18.5228C56.7476 20.2578 56.9291 22.1687 56.585 24.013C56.2408 25.8572 55.3865 27.5517 54.1309 28.881C52.8753 30.2103 51.2751 31.1145 49.5331 31.4789C47.7911 31.8432 45.9857 31.6512 44.3469 30.9273C42.7082 30.2034 41.3096 28.9802 40.3289 27.4131C39.3481 25.8459 38.8298 24.0056 38.839 22.1257C38.839 19.6235 39.778 17.2238 41.4491 15.4545C43.1203 13.6852 45.3864 12.6913 47.7499 12.6913Z" fill="#9200D7"/>
<path d="M211 0.243728C214.489 0.243728 217.836 1.71127 220.303 4.32353C222.771 6.93578 224.157 10.4788 224.157 14.1731C224.157 17.8674 222.771 21.4104 220.303 24.0226C217.836 26.6349 214.489 28.1024 211 28.1024C207.525 28.0393 204.208 26.553 201.746 23.9557C199.284 21.3584 197.868 17.852 197.796 14.1731C197.757 12.3285 198.073 10.4948 198.724 8.78319C199.374 7.07154 200.346 5.5176 201.58 4.21529C202.815 2.91299 204.286 1.88947 205.905 1.20681C207.524 0.524155 209.258 0.196485 211 0.243728Z" fill="#9200D7"/>
<path d="M109.383 83.8691H15.3248V63.469C15.3062 61.2428 15.7062 59.0348 16.5009 56.9736C17.2956 54.9124 18.4692 53.0391 19.954 51.4625C21.4388 49.886 23.2047 48.6377 25.1492 47.7903C27.0938 46.9429 29.1785 46.5135 31.2814 46.5267H109.383V83.8691Z" fill="#618BAA"/>
<path d="M244.872 65.4937H109.383V84.4118H244.872V65.4937Z" fill="#9200D7"/>
<path d="M244.872 63.4687V65.4445H109.569V46.5264H229.056C231.147 46.5328 233.216 46.9768 235.144 47.833C237.072 48.6891 238.822 49.9404 240.292 51.515C241.762 53.0895 242.923 54.9562 243.709 57.0077C244.495 59.0591 244.89 61.255 244.872 63.4687Z" fill="#99BCE4"/>
<path d="M109.383 83.8694H15.3248V269.643C15.3062 271.869 15.7062 274.077 16.5009 276.138C17.2956 278.199 18.4692 280.073 19.954 281.649C21.4388 283.226 23.2047 284.474 25.1492 285.321C27.0938 286.169 29.1785 286.598 31.2814 286.585H228.869C230.976 286.605 233.065 286.18 235.015 285.336C236.965 284.491 238.737 283.244 240.227 281.667C241.716 280.09 242.894 278.214 243.692 276.15C244.489 274.085 244.89 271.873 244.872 269.643V83.8694H109.383Z" fill="#9200D7"/>
<path d="M221.31 108.813V261.196H38.8389V108.813H221.31Z" fill="#F4F3F4"/>
<path d="M258.029 40.55C258.869 40.55 259.69 40.8138 260.388 41.3077C261.086 41.8016 261.63 42.5035 261.951 43.3249C262.273 44.1462 262.356 45.0501 262.193 45.922C262.029 46.7939 261.625 47.5947 261.031 48.2234C260.437 48.852 259.68 49.2801 258.857 49.4536C258.033 49.627 257.18 49.538 256.404 49.1977C255.628 48.8575 254.965 48.2815 254.499 47.5423C254.032 46.8031 253.783 45.934 253.783 45.045C253.783 43.8529 254.231 42.7096 255.027 41.8666C255.823 41.0237 256.903 40.55 258.029 40.55Z" fill="#F4F3F4"/>
<path d="M169.57 15.6551C170.411 15.6453 171.236 15.9005 171.941 16.3884C172.645 16.8763 173.197 17.5748 173.525 18.3952C173.854 19.2157 173.945 20.1209 173.786 20.9961C173.627 21.8713 173.227 22.6768 172.635 23.3104C172.043 23.944 171.286 24.377 170.462 24.5545C169.637 24.732 168.781 24.6458 168.002 24.3071C167.224 23.9684 166.558 23.3924 166.089 22.6521C165.621 21.9119 165.371 21.0409 165.371 20.1498C165.371 18.9662 165.811 17.8304 166.597 16.9888C167.384 16.1473 168.452 15.6681 169.57 15.6551Z" fill="#F4F3F4"/>
<path d="M116.895 28.1023C117.734 28.1023 118.556 28.3659 119.254 28.8598C119.952 29.3537 120.496 30.0558 120.817 30.8771C121.138 31.6985 121.222 32.6022 121.059 33.4741C120.895 34.346 120.491 35.147 119.897 35.7756C119.303 36.4042 118.546 36.8324 117.723 37.0058C116.899 37.1792 116.046 37.0902 115.27 36.75C114.494 36.4098 113.831 35.8336 113.365 35.0944C112.898 34.3552 112.649 33.4862 112.649 32.5972C112.649 31.4051 113.097 30.2618 113.893 29.4189C114.689 28.5759 115.769 28.1023 116.895 28.1023Z" fill="#F4F3F4"/>
<path d="M87.0806 9.67822C87.9203 9.67822 88.7414 9.94194 89.4396 10.4358C90.1378 10.9298 90.6816 11.6317 91.0029 12.4531C91.3243 13.2744 91.4082 14.1782 91.2444 15.0502C91.0806 15.9221 90.6763 16.7229 90.0826 17.3515C89.4888 17.9802 88.7322 18.4083 87.9087 18.5817C87.0851 18.7552 86.2315 18.6661 85.4557 18.3259C84.6799 17.9857 84.0171 17.4097 83.5506 16.6705C83.0841 15.9313 82.8347 15.0622 82.8347 14.1732C82.8347 12.981 83.2823 11.8378 84.0786 10.9948C84.8748 10.1518 85.9545 9.67822 87.0806 9.67822Z" fill="#F4F3F4"/>
<path d="M74.1107 58.9741C75.7316 58.9741 77.2866 59.6559 78.4328 60.8694C79.579 62.0829 80.2229 63.7287 80.2229 65.4448C80.2229 67.161 79.579 68.8068 78.4328 70.0203C77.2866 71.2337 75.7316 71.9155 74.1107 71.9155C72.4972 71.89 70.9569 71.2001 69.8158 69.9921C68.6748 68.7841 68.0231 67.153 67.999 65.4448C68.108 63.7667 68.7869 62.1871 69.9104 60.9977C71.0338 59.8083 72.5256 59.0895 74.1107 58.9741Z" fill="white"/>
<path d="M56.7078 58.9741C58.3288 58.9741 59.8832 59.6559 61.0294 60.8694C62.1756 62.0829 62.82 63.7287 62.82 65.4448C62.82 67.161 62.1756 68.8068 61.0294 70.0203C59.8832 71.2337 58.3288 71.9155 56.7078 71.9155C55.0868 71.9155 53.5324 71.2337 52.3862 70.0203C51.24 68.8068 50.5962 67.161 50.5962 65.4448C50.5962 63.7287 51.24 62.0829 52.3862 60.8694C53.5324 59.6559 55.0868 58.9741 56.7078 58.9741Z" fill="#FEDE93"/>
<path d="M38.8386 58.9741C40.0454 58.9839 41.2221 59.3716 42.221 60.0885C43.22 60.8055 43.9964 61.8195 44.4519 63.0027C44.9073 64.1859 45.0216 65.4853 44.7805 66.7373C44.5394 67.9892 43.9536 69.1374 43.097 70.0374C42.2404 70.9374 41.1511 71.5489 39.9668 71.7946C38.7825 72.0403 37.5561 71.9092 36.442 71.4181C35.3279 70.9269 34.3761 70.0976 33.7066 69.0346C33.037 67.9716 32.6797 66.7225 32.6797 65.4448C32.8089 63.766 33.5005 62.1912 34.6298 61.0047C35.759 59.8183 37.2519 59.0981 38.8386 58.9741Z" fill="#9200D7"/>
<path d="M4.96706 40.5496C5.80678 40.5496 6.62729 40.8133 7.32549 41.3072C8.02369 41.8011 8.56807 42.5031 8.88942 43.3244C9.21076 44.1458 9.29472 45.0496 9.1309 45.9215C8.96708 46.7935 8.56283 47.5943 7.96905 48.2229C7.37528 48.8515 6.61874 49.2797 5.79516 49.4531C4.97157 49.6265 4.11799 49.5375 3.34219 49.1973C2.56639 48.8571 1.90306 48.281 1.43654 47.5419C0.970017 46.8027 0.72121 45.9335 0.72121 45.0445C0.71496 44.4524 0.820451 43.8649 1.0316 43.3166C1.24276 42.7683 1.55533 42.2701 1.95083 41.8514C2.34633 41.4327 2.81685 41.1019 3.33478 40.8784C3.85272 40.6548 4.40777 40.543 4.96706 40.5496Z" fill="#F4F3F4"/>
<path d="M175.728 245.736H130.051C129.365 245.642 128.735 245.287 128.278 244.737C127.821 244.187 127.569 243.48 127.569 242.747C127.569 242.015 127.821 241.307 128.278 240.757C128.735 240.207 129.365 239.852 130.051 239.759H175.728C176.273 239.775 176.815 239.649 177.303 239.39C177.791 239.131 178.212 238.749 178.527 238.277C178.939 237.9 179.276 237.439 179.516 236.921C179.757 236.404 179.896 235.84 179.927 235.264C179.927 234.085 179.484 232.954 178.697 232.12C177.909 231.287 176.841 230.818 175.728 230.818H86.3347C85.5978 230.761 84.9048 230.425 84.3824 229.872C83.8599 229.319 83.5428 228.585 83.4888 227.805C83.544 227.03 83.863 226.303 84.3863 225.758C84.9097 225.213 85.6019 224.887 86.3347 224.842H175.728C178.335 224.855 180.832 225.957 182.675 227.909C184.519 229.86 185.56 232.504 185.572 235.264C185.617 236.648 185.394 238.027 184.916 239.316C184.438 240.605 183.715 241.776 182.792 242.757C181.869 243.739 180.767 244.509 179.551 245.022C178.336 245.534 177.035 245.777 175.728 245.736Z" fill="white"/>
<path d="M113.629 198.958L117.361 216.889L86.3352 227.854L96.6928 194.463L113.629 198.958Z" fill="#A5ABAF"/>
<path d="M167.236 164.085L117.361 216.888L113.628 198.958L156.878 153.12L167.236 164.085Z" fill="#9200D7"/>
<path d="M146.522 141.661L156.879 153.12L113.629 198.959L96.6931 194.464L146.522 141.661Z" fill="#9200D7"/>
<path d="M173.815 135.19C176.527 138.117 178.047 142.055 178.047 146.156C178.047 150.257 176.527 154.194 173.815 157.121L167.703 163.592L157.065 153.12L146.708 142.155L152.819 135.684C155.552 132.691 159.29 130.961 163.221 130.868C167.152 130.776 170.959 132.329 173.815 135.19Z" fill="#9200D7"/>
</g>
<defs>
<clipPath id="clip0_2060_1110">
<rect width="261.553" height="286.341" fill="white" transform="translate(0.720947 0.243652)"/>
</clipPath>
</defs>
</svg>
